<svg xmlns="http://www.w3.org/2000/svg" viewBox="0 0 70 70" aria-hidden="true"><g fill="#ffffff"><path d="M28.034 67.583c-6.566 0-12.757-2.835-17.432-7.509l-.263-.392c-9.815-9.814-9.815-25.845-.003-35.655l15.58-15.613c.375-.375.884-.602 1.414-.602.53 0 1.039.203 1.414.578l11.473 11.47c.781.781.781 2.045 0 2.827L26.899 36.001c-.887.887-1.362 2.095-1.339 3.405.022 1.303.556 2.57 1.462 3.477.93.93 2.229 1.462 3.563 1.462 1.276 0 2.455-.476 3.319-1.339l13.315-13.317c.75-.75 2.078-.75 2.828 0l11.474 11.474c.375.375.586.884.586 1.414s-.211 1.039-.586 1.414l-15.58 15.838c-5.522 5.295-11.882 8.216-18.597 8.216zM27.329 12.624 13.163 26.79c-8.252 8.253-8.252 21.68 0 29.933l.263.262c3.922 3.921 9.108 6.079 14.607 6.08h.001c5.647 0 11.002-2.245 15.08-6.323L57.28 42.576l-8.646-8.646-11.901 11.904c-1.619 1.619-3.803 2.511-6.147 2.511-2.389.001-4.719-.96-6.392-2.634-1.657-1.656-2.593-3.87-2.634-6.234-.042-2.406.85-4.645 2.511-6.305L35.974 21.27l-8.645-8.646z"/><path d="M15.331 55.977c-.255 0-.511-.097-.705-.291l-.209-.208c-3.644-3.644-5.649-8.485-5.649-13.635s2.006-9.991 5.647-13.632l5.113-5.114c.391-.391 1.023-.391 1.414 0s.391 1.023 0 1.414l-5.113 5.114c-3.264 3.264-5.062 7.603-5.062 12.218s1.798 8.955 5.062 12.219l.207.206c.392.39.394 1.023.004 1.414-.195.195-.452.293-.709.293z"/><path d="M25.111 19.929c-.256 0-.512-.098-.707-.293-.391-.391-.391-1.023 0-1.414l2.304-2.305c.391-.391 1.023-.391 1.414 0s.391 1.023 0 1.414l-2.304 2.305c-.195.195-.451.293-.707.293z"/><path d="M43.718 18.353c-.512 0-1.023-.195-1.414-.586L30.831 6.294c-.781-.781-.781-2.047 0-2.828s2.047-.781 2.828 0l11.473 11.473c.781.781.781 2.047 0 2.828-.391.391-.903.586-1.414.586z"/><path d="M65.024 39.659c-.512 0-1.023-.195-1.414-.586L52.138 27.601c-.781-.781-.781-2.047 0-2.828s2.047-.781 2.828 0l11.473 11.473c.781.781.781 2.047 0 2.828-.391.391-.903.586-1.415.586z"/></g></svg>